<?xml version="1.0" encoding="utf-8"?>
<!-- Generator: Adobe Illustrator 16.0.2, SVG Export Plug-In . SVG Version: 6.00 Build 0)  -->
<!DOCTYPE svg PUBLIC "-//W3C//DTD SVG 1.1//EN" "http://www.w3.org/Graphics/SVG/1.1/DTD/svg11.dtd">
<svg version="1.1" id="Ebene_1" xmlns="http://www.w3.org/2000/svg" xmlns:xlink="http://www.w3.org/1999/xlink" x="0px" y="0px"
	 width="290px" height="54.783px" viewBox="-5.192 -116.515 290 54.783" enable-background="new -5.192 -116.515 290 54.783"
	 xml:space="preserve">
<g>
	<path d="M283.42-95.56h-2.569l-4.42,7.811l-4.419-7.811h-2.569l5.961,10.277v7.913h2.26v-7.913L283.42-95.56L283.42-95.56z
		 M255.26-77.37h9.764v-2.054h-7.503v-6.886h7.297v-2.056h-7.297v-5.139h7.503v-2.056h-9.764V-77.37L255.26-77.37z M250.43-77.37
		l-8.325-9.969l8.222-8.221h-2.98l-7.708,7.913v-7.913h-2.26v18.19h2.26v-7.604l0.925-0.822l6.886,8.427H250.43L250.43-77.37z
		 M217.132-90.936l13.669,14.286v-18.91h-2.262v13.462L214.87-96.383v19.116h2.262V-90.936L217.132-90.936z M209.526-86.516
		c0-5.241-4.317-9.455-9.558-9.455c-5.24,0-9.557,4.315-9.557,9.455c0,5.447,4.317,9.455,9.557,9.455
		C205.209-77.062,209.526-81.069,209.526-86.516L209.526-86.516z M207.163-86.516c0,4.111-3.289,7.4-7.297,7.4
		c-3.905,0-7.297-3.186-7.297-7.4c0-4.009,2.98-7.399,7.297-7.399C204.182-93.813,207.163-90.525,207.163-86.516L207.163-86.516z
		 M183.936-77.37h2.363L182.6-96.383l-6.27,14.285l-6.269-14.285l-3.7,19.012h2.364l2.159-12.022l0,0l5.446,12.434l5.447-12.434l0,0
		L183.936-77.37L183.936-77.37z M153.31-77.37l-5.755-7.913c2.671-0.309,4.419-2.466,4.419-5.14c0-1.747-0.823-3.493-2.364-4.315
		c-1.438-0.823-3.186-0.823-4.83-0.823h-2.775v18.19h2.262v-7.707h0.924l5.344,7.707H153.31L153.31-77.37z M144.986-86.927h-0.719
		v-6.578h0.616c2.26,0,4.933,0.411,4.933,3.289C149.816-87.441,147.246-86.927,144.986-86.927L144.986-86.927z M126.487-77.37h9.762
		v-2.054h-7.5v-6.886h7.296v-2.056h-7.296v-5.139h7.5v-2.056h-9.762V-77.37L126.487-77.37z M112.921-76.446l7.913-19.115h-2.467
		l-5.446,13.462l-5.448-13.462h-2.467L112.921-76.446L112.921-76.446z M94.832-77.37h7.811v-2.054h-5.55V-95.56h-2.261V-77.37
		L94.832-77.37z M85.275-77.37h2.26v-18.19h-2.26V-77.37L85.275-77.37z M71.092-91.243c0-1.542,1.644-2.569,3.083-2.569
		c1.336,0,2.262,0.617,2.878,1.746l1.851-1.129c-1.028-1.748-2.672-2.775-4.729-2.775c-2.774,0-5.343,1.747-5.343,4.728
		c0,2.569,1.85,3.699,4.008,4.625l1.233,0.513c1.542,0.616,3.186,1.541,3.186,3.495c0,1.953-1.438,3.597-3.391,3.597
		s-3.598-1.438-3.494-3.494l-2.262,0.515c0.412,2.877,2.672,5.137,5.653,5.137c3.288,0,5.857-2.363,5.857-5.652
		c0-3.083-1.953-4.419-4.521-5.447l-1.335-0.513C72.531-89.085,71.092-89.805,71.092-91.243L71.092-91.243z"/>
	<path d="M48.482-105.632l-0.309-0.719l-4.625-0.411l-2.055,5.447v2.672l2.055,3.289l5.139,0.102l0.514-6.063
		l-2.364-2.055L48.482-105.632L48.482-105.632z M26.077-66.99l0.823,3.186h4.521l5.345-14.594l-3.598,0.924l-5.858,2.261
		l0.719,6.475L26.077-66.99L26.077-66.99z M10.147-94.738l-8.119,9.455l-0.411,5.858l-4.42,3.904l-1.129,9.456l1.438,2.159h7.091
		l-0.822-3.392l5.242-6.166l0.308-3.084l4.832-5.035l1.233,1.131l-3.186,3.288l10.174,1.85l10.38-3.905l3.288-0.823l-0.719-1.748
		l-7.4-3.186v-0.308l0.926-11.408l1.644,0.104l-0.822,10.482l6.988,2.981l5.14,11.921l-2.776,4.831l0.925,2.363h6.371l1.85-4.933
		l-1.027-10.997l-4.728-14.594l-2.467-3.906v-3.597l2.569-6.783l5.036,0.412l-1.747-4.214l-7.708-1.542l-6.269,9.147l-11.717,9.557
		h-0.103L10.147-94.738L10.147-94.738z M12.717-68.634l1.337,4.728h6.577l-0.206-2.673l-2.159-1.953l1.439-5.549l-7.502-1.335
		L12.717-68.634L12.717-68.634z"/>
</g>
</svg>
